<?xml version="1.0" encoding="utf-8"?>
<!-- Generator: Adobe Illustrator 24.1.2, SVG Export Plug-In . SVG Version: 6.00 Build 0)  -->
<svg version="1.1" id="Layer_1" xmlns="http://www.w3.org/2000/svg" xmlns:xlink="http://www.w3.org/1999/xlink" x="0px" y="0px"
	 viewBox="0 0 350 350" style="enable-background:new 0 0 350 350;" xml:space="preserve">
<style type="text/css">
	.st0{display:none;fill:#F2F2F2;}
	.st1{display:none;fill:#A0616A;}
	.st2{display:none;fill:#2F2E41;}
	.st3{display:none;fill:#FF7663;}
	.st4{display:none;fill:#FFB6B6;}
	.st5{display:none;fill:#CCCCCC;}
	.st6{display:none;fill:#8C8C8C;}
	.st7{display:none;fill:#333333;}
	.st8{display:none;fill:#383838;}
	.st9{display:none;fill:#141414;}
	.st10{display:none;}
	.st11{display:inline;}
	.st12{fill:url(#SVGID_2_);}
	.st13{clip-path:url(#SVGID_4_);}
	.st14{fill:#DEDEDE;}
	.st15{clip-path:url(#SVGID_6_);}
	.st16{display:none;fill:#FFFFFF;}
	.st17{fill:#032B5C;}
	.st18{fill:#CCCCCC;}
	.st19{fill:#10D7FF;}
	.st20{font-family:'Didot-HTF-B06-Bold';}
	.st21{font-size:107.2063px;}
</style>
<path class="st0" d="M50.7,415.3c-2,0.1-3.7-1.5-3.8-3.4c-0.1-1.1,0.4-2.1,1.2-2.8c0.1-0.4,0.2-0.6,0.3-1c0-0.1-0.1-0.2-0.1-0.2
	c-2.1-4.9-7.8-7.2-12.7-5.1c-2.3,1-4.2,2.9-5.2,5.2c-2.9,7-6.7,14.1-7.6,21.6c-0.4,3.3-0.2,6.6,0.5,9.9c-6.9-15-10.5-31.3-10.5-47.8
	c0-4.1,0.2-8.3,0.7-12.4c0.4-3.4,0.9-6.7,1.6-10c3.7-18,11.6-35,23.1-49.3c5.6-3,10.1-7.7,12.9-13.4c1-2,1.8-4.2,2.2-6.5
	c-0.6,0.1-1.3,0.1-1.9,0.2c-0.2,0-0.4,0-0.6,0h-0.1c-2,0.1-3.7-1.4-3.7-3.4c0-0.9,0.2-1.7,0.8-2.4c0.3-0.3,0.5-0.7,0.8-1
	c0.4-0.5,0.8-1,1.2-1.5c0.1,0,0.1-0.1,0.1-0.1c0.5-0.6,0.9-1.2,1.4-1.8c-0.9-1.3-2-2.5-3.4-3.3c-4.7-2.8-11.3-0.9-14.7,3.4
	c-3.4,4.3-4.1,10.3-2.9,15.7c1.2,4.6,3.1,8.9,5.7,12.8c-0.3,0.3-0.5,0.6-0.8,1c-4.7,6-8.8,12.5-12.2,19.4c0.8-7.7-0.2-15.4-2.9-22.6
	c-2.8-6.7-8-12.4-12.6-18.2c-5.5-7-16.8-3.9-17.8,4.9c0,0.1,0,0.2,0,0.3c0.7,0.4,1.4,0.8,2,1.2c2.3,1.5,2.9,4.5,1.4,6.8
	c-0.8,1.1-2,1.9-3.3,2.1l-0.1,0c0.2,2.5,0.7,4.9,1.3,7.3c3.6,13.5,12.6,24.9,25,31.5c0.4,0.2,0.8,0.4,1.2,0.6
	c-3.5,9.8-5.6,20-6.4,30.3c-0.5,6.1-0.4,12.2,0.1,18.3l0-0.2c-1.3-6.8-4.9-12.9-10.2-17.3c-7.9-6.5-19-8.9-27.5-14
	c-2.6-1.7-6.1-0.9-7.8,1.7c-0.7,1.1-1,2.5-0.8,3.8c0,0.1,0,0.1,0,0.2c1.3,0.5,2.5,1.1,3.7,1.8c0.7,0.4,1.4,0.8,2,1.2
	c2.3,1.5,2.9,4.5,1.4,6.8c-0.8,1.1-2,1.9-3.3,2.1l-0.1,0c-0.1,0-0.1,0-0.2,0c2.2,5.2,5.2,9.9,9,14.1c9.4,10.1,22.6,15.9,36.5,16h0
	c1.9,8.1,4.6,15.9,8,23.4H50c0.1-0.3,0.2-0.7,0.3-1c-2.7,0.2-5.3,0-7.9-0.5c2.1-2.6,4.3-5.2,6.4-7.9c0.1,0,0.1-0.1,0.1-0.2
	c1.1-1.3,2.2-2.7,3.3-4l0,0C52.2,423.4,51.7,419.3,50.7,415.3L50.7,415.3z"/>
<path class="st0" d="M301.8,415.3c2,0.1,3.7-1.5,3.8-3.4c0-1.1-0.4-2.1-1.2-2.8c-0.1-0.4-0.2-0.6-0.3-1c0-0.1,0.1-0.2,0.1-0.2
	c2.1-4.9,7.8-7.2,12.7-5.1c2.3,1,4.2,2.9,5.2,5.2c2.9,7,6.6,14.1,7.6,21.6c0.4,3.3,0.2,6.6-0.5,9.9c6.9-15,10.5-31.3,10.5-47.8
	c0-4.1-0.2-8.3-0.7-12.4c-0.4-3.4-0.9-6.7-1.6-10c-3.7-18-11.6-35-23.1-49.3c-5.6-3-10.1-7.7-12.9-13.4c-1-2-1.8-4.2-2.1-6.5
	c0.6,0.1,1.3,0.1,1.9,0.2c0.2,0,0.4,0,0.6,0h0.1c2,0.1,3.6-1.4,3.7-3.4c0-0.9-0.2-1.7-0.8-2.4c-0.3-0.3-0.5-0.7-0.8-1
	c-0.4-0.5-0.8-1-1.2-1.5c0,0-0.1-0.1-0.1-0.1c-0.5-0.6-1-1.2-1.4-1.8c0.9-1.3,2-2.5,3.4-3.3c4.7-2.8,11.3-0.9,14.7,3.4
	c3.4,4.3,4.1,10.3,2.9,15.7c-1.2,4.6-3.1,8.9-5.7,12.8c0.3,0.3,0.5,0.6,0.8,1c4.7,6,8.8,12.5,12.2,19.4c-0.8-7.7,0.2-15.4,2.9-22.6
	c2.8-6.7,8-12.4,12.6-18.2c5.5-7,16.8-3.9,17.8,4.9c0,0.1,0,0.2,0,0.3c-0.7,0.4-1.4,0.8-2,1.2c-2.3,1.5-2.9,4.5-1.4,6.8
	c0.8,1.1,2,1.9,3.3,2.1l0.1,0c-0.2,2.5-0.7,4.9-1.3,7.3c-3.6,13.5-12.6,24.9-25,31.5c-0.4,0.2-0.8,0.4-1.2,0.6
	c3.5,9.8,5.6,20,6.4,30.3c0.5,6.1,0.4,12.2-0.1,18.3l0-0.2c1.3-6.8,4.9-12.9,10.2-17.3c7.9-6.5,19-8.9,27.5-14
	c2.6-1.7,6.1-0.9,7.8,1.7c0.7,1.1,1,2.5,0.8,3.8c0,0.1,0,0.1,0,0.2c-1.3,0.5-2.5,1.1-3.7,1.8c-0.7,0.4-1.4,0.8-2,1.2
	c-2.3,1.5-2.9,4.5-1.4,6.8c0.8,1.1,2,1.9,3.3,2.1l0.1,0c0.1,0,0.1,0,0.2,0c-2.2,5.2-5.2,9.9-9,14.1c-9.4,10.1-22.6,15.9-36.5,16h0
	c-1.9,8.1-4.5,15.9-8,23.4h-28.7c-0.1-0.3-0.2-0.7-0.3-1c2.7,0.2,5.3,0,7.9-0.5c-2.1-2.6-4.3-5.2-6.4-7.9c0,0-0.1-0.1-0.1-0.2
	c-1.1-1.3-2.2-2.7-3.3-4l0,0C300.4,423.4,300.9,419.3,301.8,415.3L301.8,415.3z"/>
<polygon class="st1" points="59.9,425.7 68.3,429.3 86,398.6 73.7,393.3 "/>
<polygon class="st1" points="129.2,433.6 138.3,433.6 142.6,398.4 129.2,398.4 "/>
<path class="st2" d="M128.9,443.1h28v-0.3c0-6-4.9-10.9-10.9-10.9l0,0l-5.1-3.9l-9.6,3.9h-2.4V443.1z"/>
<path class="st2" d="M54.8,431.8l25.8,11l0.1-0.3c2.4-5.5-0.2-12-5.8-14.3l0,0l-3.2-5.6l-10.3-0.2l-2.3-1L54.8,431.8z"/>
<path class="st2" d="M138.1,225.5l13.9,84.4l-3.8,12.6l4.9,8.9l-7.3,78.2l2.9,6.5l-8.2,5.1h-16.8l-0.9-70.8l-4.1-10.4v-5.7
	l-8.4-43.2l-0.9,53.6l-2.7,5.2l-24.1,63.1H63.9l1.4-11.2l0,0c-3.4-1.7,5.1-6.7,5.9-10.4l-2.8-6.2l2.8-11.8l6.4-32.7L71,301.8l2.3-25
	l-1.2-8.5l0.1-2.8c0,0,3.2-1.2,0.1-4.3c-4.3-24.1,1-29.3,1-29.3l20.9-12.3L138.1,225.5z"/>
<circle id="a947ada5-bf6f-4e8a-be72-c0404926012e" class="st1" cx="104.4" cy="95.4" r="19"/>
<path class="st1" d="M80.6,58.9c0.3,4.1-2.7,7.7-6.8,8.1c-0.4,0-0.9,0-1.3,0l-11,24.2L54,79.4l11.6-21.2c0.7-4.1,4.5-6.9,8.6-6.2
	C77.7,52.6,80.3,55.4,80.6,58.9L80.6,58.9z"/>
<path class="st3" d="M139.4,227.3c0.1,1-0.6,1.9-1.5,2c-0.2,0-0.4,0-0.6,0c-10-2.1-51,3-64.6,16.9c-0.7,0.7-1.8,0.7-2.5,0
	c-0.4-0.4-0.6-0.9-0.5-1.4c0.2-3,4.6-16.5,4.6-16.5l1.3-8.4c0-0.2,0-0.4,0-0.6l-1.2-7c-0.1-0.4-0.2-0.7-0.5-1l-0.4-0.4
	c-0.7-0.7-0.7-1.8,0-2.5l1.6-1.6c0.4-0.4,0.6-1,0.5-1.5l-2.1-15.6c0,0,0-0.1,0-0.1L64,140.4c-0.2-0.8,0.3-1.6,1-1.9l15.8-7.6
	c0.2-0.1,0.3-0.2,0.4-0.3l11.1-10.3c0.3-0.3,0.8-0.5,1.2-0.5l19.9-0.1c0.6,0,1.1,0.3,1.4,0.7l6.1,7.9c0.2,0.3,0.5,0.5,0.8,0.6
	l4.1,1.4l11.8,4l0.6,0.2c0.7,0.2,1.2,0.9,1.2,1.6c0,0.1,0,0.1,0,0.2l-3,61.3c0,0.3,0,0.5,0.1,0.8l1.4,3.3c0.3,0.7,0.1,1.5-0.4,2
	c-0.4,0.4-0.9,0.9-1.2,1.2c-0.6,0.7,0.7,6,0.9,6.8c0,0.1,0,0.1,0,0.2l0.7,5.5c0.1,0.7-0.2,1.3-0.7,1.7c-0.8,0.6-1,1.7-0.4,2.5
	c0,0,0.1,0.1,0.1,0.1l1.6,1.9c0.2,0.3,0.4,0.6,0.4,0.9L139.4,227.3z"/>
<path class="st2" d="M99.5,113.4c-0.1-0.2-0.2-0.4-0.2-0.5c0,0,0.1,0,0.1,0L99.5,113.4z"/>
<path class="st1" d="M167.2,221c0.4-4.1-2.7-7.7-6.8-8.1c-0.4,0-0.9,0-1.3,0l-11-24.2l-7.4,11.7l11.6,21.2c0.6,4.1,4.5,6.9,8.6,6.2
	C164.3,227.3,166.9,224.5,167.2,221L167.2,221z"/>
<path class="st3" d="M152.3,195.6l-0.6,1.1l-6.4,12l-0.9,1.7l-6.3-8.6l-20.6-28.4l2.9-17.8l5.4-22.3l8-0.5l5.6,2.3l0,0
	c4.9,2.2,7.7,7.4,6.6,12.7l-5,25.4L152.3,195.6z"/>
<path class="st2" d="M120.9,78.3c-0.3-1.6-0.9-3.1-1.9-4.4c-1.9-2.2-5.2-2.5-7.4-0.6c-0.1,0.1-0.3,0.3-0.4,0.4
	c0.3-0.9,0.4-1.8,0.3-2.7c-1.4,0.7-2.9,1.1-4.4,1.3l3.4-3.5l-16.8,1.5c-1.7,0.2-3.6,0.4-4.9,1.7c-1.3,1.3-1.3,4.1,0.3,4.9
	c-3.2-1.2-6.8,0.5-8.9,3.4c-2.1,2.9-2.9,6.7-3,10.4c-0.2,4.8,0.7,9.9,3.7,13.5c1.9,2.3,4.5,3.8,6.7,5.9l0.1,0.1
	c4.7,4.9,11.7,6.8,18.3,5.1c0.4-0.1,0.7-0.2,1.1-0.3c1.8,0.8,4.1-0.3,5.2-2.1c1.2-1.9,1.5-4.4,1.5-6.8c0.1-3.1-0.1-6.2-0.6-9.2
	c-0.5-3.4-1-7.9,1.8-9.6c2.1-1.4,4.8,0,6.9,1.3C122,85,121.7,81.6,120.9,78.3z"/>
<path class="st3" d="M80.4,166.2l-12.7-0.9l-22-26.9L29.5,115l3.8-9.5L51,80.1l-0.2-2.2l2-0.4l0-2.6l1.6,0.3l4.4-6.3l10,8l-5.7,16.6
	l-0.3,3.4l-2,3.4l1,4.6l-3.7,3.6l-1.8,5.3c7.8,5.1,15.1,12.8,22.3,22.3L80.4,166.2z"/>
<polygon class="st4" points="253,195.5 251.6,208.2 252.4,224.9 215.4,220.5 212,195.5 216.4,195.5 "/>
<path class="st3" d="M220.8,153.7l8.8-5.3l4.2-6.5l13,2l15.9,10.6l-0.2,24.2l-9.8,25.1l-41.3-5.3l-1.6-8.8c0,0-11.4-15.3,0.9-24.1
	L220.8,153.7z"/>
<path class="st4" d="M168.1,81.9c-1.6,3.4-0.1,7.4,3.2,8.9c0.4,0.2,0.7,0.3,1.1,0.4l28.6,54l11.6-8.9l-31.8-50.3
	c0.7-3.6-1.6-7.2-5.3-7.9C172.4,77.5,169.4,79.1,168.1,81.9L168.1,81.9z"/>
<path class="st3" d="M215,163.5c0,0-2.6,2.4-6.4-4.1c-3-5.2-18.1-28.5-20.2-36.5c-2.4,0.1-4.6-1.5-5.2-3.8l16.2-6.3
	c3.5,1.8,2.5,4.2,1.6,5.4l6,9l20,22.5l-10.1,12.1L215,163.5z"/>
<polygon class="st4" points="272.2,426.6 264.1,426.6 260.2,395.4 272.2,395.4 "/>
<path class="st2" d="M276.4,440.6h-5.8l-1-5.5l-2.6,5.5h-15.4c-1.9,0-3.5-1.5-3.5-3.5c0-1.1,0.6-2.2,1.5-2.8l12.3-8.5v-5.5l12.9,0.8
	L276.4,440.6z"/>
<polygon class="st4" points="226.8,426.6 218.7,426.6 214.8,395.4 226.8,395.4 "/>
<path class="st2" d="M231,440.6h-5.8l-1-5.5l-2.6,5.5h-15.4c-1.9,0-3.5-1.5-3.5-3.5c0-1.1,0.6-2.2,1.5-2.8l12.3-8.5v-5.5l12.9,0.8
	L231,440.6z"/>
<path class="st2" d="M275.7,399.7L275.7,399.7L274,349c2-3.9,2-8.6-0.2-12.5l-0.2-0.4l0.6-2.7c0.7-3.4,0.4-7-1-10.3l-1.5-47.3
	c5.2-33.6-19.5-55.5-19.5-55.5h-37l-2.6,9.1l-2.8,2.4l1.1,3.6l-3.1,4.4l-0.5,7.8c-5.3,51.1-4.3,101,4,149.3l-0.2,0.1
	c-0.9,0.5-1.2,1.6-0.8,2.5c0.4,1.1,1.4,1.8,2.2,1.5l19.5-0.7c0.9-0.5,1.2-1.6,0.8-2.5c-0.4-1.1-1.4-1.8-2.2-1.5l-1.3,0.7l2.8-48.9
	l-0.3-8.9l0.6-10.1l3-45.6l11.3,56.1l11.6,60.7c-0.9,0.8-0.9,2.1-0.1,3c0.4,0.5,1,0.7,1.6,0.7h15.8c1.2,0,2.1-1,2.1-2.1
	C277.8,400.7,276.8,399.7,275.7,399.7L275.7,399.7z"/>
<path class="st4" d="M316.2,241.3c1.5-3.4-0.1-7.4-3.5-8.8c-0.4-0.2-0.7-0.3-1.1-0.4L281.4,179l-11.3,9.2l33.2,49.3
	c-0.6,3.7,1.9,7.1,5.5,7.8C311.9,245.8,314.9,244.1,316.2,241.3L316.2,241.3z"/>
<path class="st3" d="M260.2,154.5c0,0,2.6-2.4,6.5,3.9c3.2,5.1,25.6,34.6,28,42.6c2.4-0.1,4.6,1.4,5.3,3.7l-16,6.7
	c-3.6-1.6-5.2-4.8-4.4-6l-6.3-8.9l-23.5-27.2l8.4-13.1L260.2,154.5z"/>
<path class="st5" d="M379.6,442.4c0,0.9-0.7,1.5-1.5,1.5h0H-34c-0.9,0-1.5-0.7-1.5-1.5s0.7-1.5,1.5-1.5l0,0h412
	C378.9,440.9,379.6,441.5,379.6,442.4C379.6,442.4,379.6,442.4,379.6,442.4z"/>
<path class="st2" d="M227.5,106.8c-5.4,10.6-1.9,22.9,8.1,29.3c10.8,7,24.8,5.4,29.3-8.1c5-15.1,0.9-21.6-8.1-29.3
	C246.2,89.6,233.3,95.4,227.5,106.8z"/>
<path class="st4" d="M254,130.4c-5.7,7.5-16.4,8.9-23.9,3.2c-7.5-5.7-8.9-16.4-3.2-23.8l0.1-0.2c5.9-7.4,16.6-8.6,23.9-2.7
	C258.1,112.7,259.5,123.1,254,130.4L254,130.4z"/>
<path class="st2" d="M222.3,105.1c2.8,2.6,6.1,4.6,9.8,5.6c0.7-0.9,1.6-1.6,2.6-2.1c-0.5,1-0.8,2-1,3.1c1.6,3.4,8.4,5.9,14.8,8.4
	l8.5-15l-11.2-6.4C236.7,92.4,226.1,95,222.3,105.1z"/>
<path class="st2" d="M263.4,98.7c1.7-0.6,3.5-0.3,5,0.7c1.4,1,2.5,2.4,3.2,3.9c1.4,2.5,2.4,5.2,2.9,8c0.5,2.4,0.4,5.3-1.8,6.6
	c-1.8,1.1-4.4,0.4-6.1-1c-1.5-1.5-2.7-3.3-3.4-5.3c-0.7-2-1.7-3.9-3-5.5l1.5,0.7c-0.5-1.4-0.7-2.9-0.6-4.5
	C261.1,100.8,262,99.4,263.4,98.7z"/>
<path class="st2" d="M243.9,100.7l12.1,6.8c6.8,3.9,9.2,12.5,5.3,19.3l0,0l0,0c-5.6,9.8-17.7,13.8-28,9.2l11-9.7l-15,7.6l-3.2-1.8
	C242.2,129.1,245.3,116.6,243.9,100.7z"/>
<polygon class="st6" points="127.5,-88.8 87.9,-22.8 127.7,0.7 "/>
<polygon class="st7" points="167.4,-22.8 127.5,-88.8 127.7,0.7 "/>
<polygon class="st8" points="87.9,-22.8 127.6,-40.9 127.7,0.7 "/>
<polygon class="st9" points="167.4,-22.8 127.6,-40.9 127.7,-0.8 "/>
<polygon class="st7" points="167.3,-15.2 127.6,8.2 127.6,40.7 "/>
<polygon class="st6" points="87.9,-15.2 127.6,8.2 127.6,40.7 "/>
<g class="st10">
	<g class="st11">
		
			<radialGradient id="SVGID_2_" cx="101.8049" cy="97.3589" r="769.1619" gradientTransform="matrix(1 0 0 -1 0 352)" gradientUnits="userSpaceOnUse">
			<stop  offset="0.3505" style="stop-color:#032C5D"/>
			<stop  offset="1" style="stop-color:#00003F"/>
		</radialGradient>
		<rect id="SVGID_1_" x="-599.8" y="-198.6" class="st12" width="1382.4" height="921.6"/>
	</g>
	<g class="st11">
		<defs>
			<rect id="SVGID_3_" x="-599.8" y="-198.6" width="1382.4" height="921.6"/>
		</defs>
		<clipPath id="SVGID_4_">
			<use xlink:href="#SVGID_3_"  style="overflow:visible;"/>
		</clipPath>
		<g class="st13">
			<g>
				<g>
					<polygon class="st14" points="-56.9,81.1 -221.3,81.1 -290.6,11.8 -412.8,11.8 -508.7,-84.1 -507.9,-84.8 -412.4,10.7 
						-290.2,10.7 -220.9,80 -56.9,80 					"/>
				</g>
				<g>
					<path class="st14" d="M-57.2,76.5c2.3,0,4.1,1.8,4.1,4.1s-1.8,4.1-4.1,4.1s-4.1-1.8-4.1-4.1C-61.2,78.3-59.4,76.5-57.2,76.5z"
						/>
				</g>
				<g>
					<path class="st14" d="M-505.3-87.2c-1.6-1.6-4.2-1.6-5.8,0c-1.6,1.6-1.6,4.2,0,5.8c1.6,1.6,4.2,1.6,5.8,0
						C-503.7-83-503.7-85.6-505.3-87.2z"/>
				</g>
			</g>
			<g>
				<g>
					<polygon class="st14" points="-564.8,602.6 -675.8,602.6 -675.8,601.6 -565.3,601.6 -504.1,540.4 -382,540.4 -312.7,471.1 
						-144.6,471.1 -82.7,409.2 -82,410 -144.2,472.2 -312.2,472.2 -381.5,541.5 -503.7,541.5 					"/>
				</g>
				<g>
					<path class="st14" d="M-85.4,406.9c1.6-1.6,4.2-1.6,5.8,0c1.6,1.6,1.6,4.2,0,5.8c-1.6,1.6-4.2,1.6-5.8,0
						C-87,411-87,408.5-85.4,406.9z"/>
				</g>
				<g>
					<circle class="st14" cx="-675.6" cy="602.1" r="4.1"/>
				</g>
			</g>
			<g>
				<g>
					<polygon class="st14" points="-6.6,162.2 -62.6,106.2 -255,106.2 -312.6,48.7 -389.9,48.7 -420.9,79.6 -655.1,79.6 
						-655.1,78.6 -421.3,78.6 -390.3,47.6 -312.1,47.6 -254.6,105.1 -62.1,105.1 -5.9,161.4 					"/>
				</g>
				<g>
					<circle class="st14" cx="-6.4" cy="161.7" r="4.1"/>
				</g>
				<g>
					<circle class="st14" cx="-654.9" cy="79.1" r="4.1"/>
				</g>
			</g>
			<g>
				<g>
					<polygon class="st14" points="-159.8,457.2 -224.8,457.2 -272.9,409.1 -367.1,409.1 -414,362.2 -554.6,362.2 -554.6,361.1 
						-413.6,361.1 -366.7,408 -272.4,408 -224.3,456.1 -160.2,456.1 -94.1,390 -93.4,390.8 					"/>
				</g>
				<g>
					<path class="st14" d="M-96.8,387.7c1.6-1.6,4.2-1.6,5.8,0c1.6,1.6,1.6,4.2,0,5.8c-1.6,1.6-4.2,1.6-5.8,0
						C-98.3,391.8-98.3,389.3-96.8,387.7z"/>
				</g>
				<g>
					<circle class="st14" cx="-554.4" cy="361.7" r="4.1"/>
				</g>
			</g>
			<g>
				<g>
					<polygon class="st14" points="-13.6,188.5 -68.3,133.9 -251.5,133.9 -312.8,72.6 -368.8,72.6 -413.7,117.5 -590.1,117.5 
						-590.1,116.4 -414.2,116.4 -369.2,71.5 -312.3,71.5 -251.1,132.8 -67.9,132.8 -12.9,187.8 					"/>
				</g>
				<g>
					<path class="st14" d="M-589.9,121c-2.3,0-4.1-1.8-4.1-4.1s1.8-4.1,4.1-4.1s4.1,1.8,4.1,4.1S-587.6,121-589.9,121z"/>
				</g>
				<g>
					<path class="st14" d="M-16.3,190.9c1.6,1.6,4.2,1.6,5.7,0s1.6-4.2,0-5.8s-4.2-1.6-5.7,0C-17.9,186.7-17.9,189.3-16.3,190.9z"/>
				</g>
			</g>
			<g>
				<g>
					<polygon class="st14" points="-168,403.6 -247.6,403.6 -339.9,311.4 -530.1,311.4 -576,357.3 -576.8,356.5 -530.6,310.3 
						-339.4,310.3 -247.2,402.5 -168.5,402.5 -123.2,357.3 -41.6,357.3 -41.6,358.4 -122.8,358.4 					"/>
				</g>
				<g>
					<path class="st14" d="M-41.8,353.7c2.3,0,4.1,1.8,4.1,4.1s-1.8,4.1-4.1,4.1s-4.1-1.8-4.1-4.1S-44.1,353.7-41.8,353.7z"/>
				</g>
				<g>
					<path class="st14" d="M-579.1,353.9c-1.6,1.6-1.6,4.2,0,5.8s4.2,1.6,5.8,0s1.6-4.2,0-5.8C-574.9,352.3-577.5,352.3-579.1,353.9
						z"/>
				</g>
			</g>
			<g>
				<g>
					<polygon class="st14" points="-150.5,422.5 -194.3,422.5 -194.3,421.4 -150.9,421.4 -101.1,371.6 -100.3,372.3 					"/>
				</g>
				<g>
					<path class="st14" d="M-103.7,369.2c1.6-1.6,4.2-1.6,5.8,0c1.6,1.6,1.6,4.2,0,5.8c-1.6,1.6-4.2,1.6-5.8,0
						S-105.3,370.8-103.7,369.2z"/>
				</g>
				<g>
					<circle class="st14" cx="-194.1" cy="422" r="4.1"/>
				</g>
			</g>
			<g>
				<g>
					<polygon class="st14" points="-13.6,221 -72.3,162.4 -237.4,162.4 -292.8,107.1 -384.6,107.1 -432.5,154.9 -631.1,154.9 
						-689.8,96.2 -689,95.5 -630.6,153.9 -432.9,153.9 -385.1,106 -292.4,106 -237,161.3 -71.8,161.3 -12.9,220.3 					"/>
				</g>
				<g>
					<path class="st14" d="M-10.5,217.6c1.6,1.6,1.6,4.2,0,5.8s-4.2,1.6-5.7,0s-1.6-4.2,0-5.8S-12.1,216-10.5,217.6z"/>
				</g>
				<g>
					<path class="st14" d="M-686.4,93.1c-1.6-1.6-4.2-1.6-5.8,0s-1.6,4.2,0,5.8s4.2,1.6,5.8,0C-684.8,97.3-684.8,94.7-686.4,93.1z"
						/>
				</g>
			</g>
			<g>
				<g>
					<polygon class="st14" points="-38.2,232.4 -85.9,184.8 -233.9,184.8 -291.7,127 -381.1,127 -453.9,199.8 -454.7,199.1 
						-381.5,126 -291.3,126 -233.5,183.7 -85.4,183.7 -37.5,231.7 					"/>
				</g>
				<g>
					<path class="st14" d="M-35.1,229c1.6,1.6,1.6,4.2,0,5.8s-4.2,1.6-5.8,0s-1.6-4.2,0-5.8C-39.3,227.5-36.7,227.5-35.1,229z"/>
				</g>
				<g>
					<circle class="st14" cx="-454.1" cy="199.3" r="4.1"/>
				</g>
			</g>
			<g>
				<g>
					<polygon class="st14" points="-199.2,375.9 -254.7,375.9 -360.3,270.3 -640.7,270.3 -640.7,269.2 -359.8,269.2 -254.2,374.8 
						-199.7,374.8 -160.1,335.3 -52.9,335.3 -6.6,289 -5.9,289.8 -52.5,336.4 -159.7,336.4 					"/>
				</g>
				<g>
					<path class="st14" d="M-9.3,286.6c1.6-1.6,4.2-1.6,5.8,0s1.6,4.2,0,5.8s-4.2,1.6-5.8,0C-10.8,290.8-10.8,288.2-9.3,286.6z"/>
				</g>
				<g>
					<path class="st14" d="M-640.5,265.7c-2.3,0-4.1,1.8-4.1,4.1s1.8,4.1,4.1,4.1s4.1-1.8,4.1-4.1S-638.2,265.7-640.5,265.7z"/>
				</g>
			</g>
			<g>
				<g>
					<polygon class="st14" points="-251.9,249.4 -289.6,249.4 -289.6,248.3 -252.4,248.3 -218.1,214 -90,214 -90,215.1 
						-217.7,215.1 					"/>
				</g>
				<g>
					<path class="st14" d="M-90.2,210.5c2.3,0,4.1,1.8,4.1,4.1s-1.8,4.1-4.1,4.1s-4.1-1.8-4.1-4.1
						C-94.2,212.3-92.4,210.5-90.2,210.5z"/>
				</g>
				<g>
					<circle class="st14" cx="-289.4" cy="248.9" r="4.1"/>
				</g>
			</g>
			<g>
				<g>
					<polygon class="st14" points="-254.4,215.8 -306.9,163.3 -382.7,163.3 -382.7,162.2 -306.4,162.2 -253.6,215 					"/>
				</g>
				<g>
					<path class="st14" d="M-251.3,212.4c1.6,1.6,1.6,4.2,0,5.8s-4.2,1.6-5.8,0s-1.6-4.2,0-5.8
						C-255.4,210.8-252.9,210.8-251.3,212.4z"/>
				</g>
				<g>
					<path class="st14" d="M-382.5,158.7c-2.3,0-4.1,1.8-4.1,4.1s1.8,4.1,4.1,4.1s4.1-1.8,4.1-4.1S-380.3,158.7-382.5,158.7z"/>
				</g>
			</g>
			<g>
				<g>
					<polygon class="st14" points="-289.5,221 -326.2,184.4 -393.3,184.4 -393.3,183.3 -325.7,183.3 -288.8,220.3 					"/>
				</g>
				<g>
					<circle class="st14" cx="-289.3" cy="220.5" r="4.1"/>
				</g>
				<g>
					<circle class="st14" cx="-393.1" cy="183.8" r="4.1"/>
				</g>
			</g>
			<g>
				<g>
					<rect x="-637.2" y="374.4" class="st14" width="46.8" height="1.1"/>
				</g>
				<g>
					<circle class="st14" cx="-590.6" cy="375" r="4.1"/>
				</g>
				<g>
					<path class="st14" d="M-637,370.9c-2.3,0-4.1,1.8-4.1,4.1s1.8,4.1,4.1,4.1s4.1-1.8,4.1-4.1C-632.9,372.7-634.7,370.9-637,370.9
						z"/>
				</g>
			</g>
			<g>
				<g>
					<polygon class="st14" points="-315.5,381.4 -362.7,334.2 -514.2,334.2 -514.2,333.2 -362.3,333.2 -314.8,380.7 					"/>
				</g>
				<g>
					<path class="st14" d="M-312.4,378c1.6,1.6,1.6,4.2,0,5.8s-4.2,1.6-5.8,0s-1.6-4.2,0-5.8S-314,376.4-312.4,378z"/>
				</g>
				<g>
					<circle class="st14" cx="-514" cy="333.7" r="4.1"/>
				</g>
			</g>
			<g>
				<g>
					<polygon class="st14" points="-564.4,575 -667.1,575 -667.1,573.9 -564.8,573.9 -486.6,495.7 -397,495.7 -346,444.7 
						-249.5,444.7 -249.5,445.8 -345.6,445.8 -396.6,496.8 -486.2,496.8 					"/>
				</g>
				<g>
					<circle class="st14" cx="-249.7" cy="445.3" r="4.1"/>
				</g>
				<g>
					<path class="st14" d="M-666.9,570.4c-2.3,0-4.1,1.8-4.1,4.1s1.8,4.1,4.1,4.1s4.1-1.8,4.1-4.1S-664.6,570.4-666.9,570.4z"/>
				</g>
			</g>
			<g>
				<g>
					<polygon class="st14" points="-671.3,455.2 -672.1,454.5 -611.4,393.8 -429.9,393.8 -394.8,428.9 -284.7,428.9 -284.7,430 
						-395.2,430 -430.4,394.9 -610.9,394.9 					"/>
				</g>
				<g>
					<circle class="st14" cx="-284.9" cy="429.5" r="4.1"/>
				</g>
				<g>
					<path class="st14" d="M-674.4,451.8c-1.6,1.6-1.6,4.2,0,5.8s4.2,1.6,5.8,0s1.6-4.2,0-5.8C-670.3,450.2-672.8,450.2-674.4,451.8
						z"/>
				</g>
			</g>
			<g>
				<g>
					<polygon class="st14" points="-570.5,521.4 -655.3,521.4 -685.3,491.5 -684.5,490.7 -654.9,520.3 -571,520.3 -507.7,457 
						-404.2,457 -404.2,458.1 -507.3,458.1 					"/>
				</g>
				<g>
					<path class="st14" d="M-404.4,453.5c2.3,0,4.1,1.8,4.1,4.1s-1.8,4.1-4.1,4.1s-4.1-1.8-4.1-4.1S-406.6,453.5-404.4,453.5z"/>
				</g>
				<g>
					<path class="st14" d="M-681.9,488.3c-1.6-1.6-4.2-1.6-5.8,0s-1.6,4.2,0,5.8s4.2,1.6,5.8,0
						C-680.3,492.5-680.3,489.9-681.9,488.3z"/>
				</g>
			</g>
			<g>
				<g>
					<polygon class="st14" points="-594.3,480.1 -637.2,480.1 -637.2,479 -594.7,479 -546.4,430.7 -439.3,430.7 -439.3,431.8 
						-545.9,431.8 					"/>
				</g>
				<g>
					<path class="st14" d="M-439.5,427.2c2.3,0,4.1,1.8,4.1,4.1s-1.8,4.1-4.1,4.1s-4.1-1.8-4.1-4.1S-441.8,427.2-439.5,427.2z"/>
				</g>
				<g>
					<circle class="st14" cx="-637" cy="479.5" r="4.1"/>
				</g>
			</g>
			<g>
				<g>
					<polygon class="st14" points="-681.9,376.2 -682.6,375.4 -604.4,297.1 -398.9,297.1 -398.9,298.2 -603.9,298.2 					"/>
				</g>
				<g>
					<path class="st14" d="M-399.1,293.6c2.3,0,4.1,1.8,4.1,4.1s-1.8,4.1-4.1,4.1s-4.1-1.8-4.1-4.1
						C-403.2,295.4-401.3,293.6-399.1,293.6z"/>
				</g>
				<g>
					<path class="st14" d="M-685,372.8c-1.6,1.6-1.6,4.2,0,5.8s4.2,1.6,5.8,0s1.6-4.2,0-5.8C-680.8,371.2-683.4,371.2-685,372.8z"/>
				</g>
			</g>
			<g>
				<g>
					<polygon class="st14" points="-230.5,341.3 -263.4,341.3 -359.7,245.1 -658.3,245.1 -658.3,244 -359.2,244 -263,340.2 
						-230.9,340.2 -193.2,302.4 -89.5,302.4 -59,271.9 -58.2,272.7 -89,303.5 -192.7,303.5 					"/>
				</g>
				<g>
					<path class="st14" d="M-61.6,269.6c1.6-1.6,4.2-1.6,5.8,0s1.6,4.2,0,5.8s-4.2,1.6-5.8,0S-63.2,271.1-61.6,269.6z"/>
				</g>
				<g>
					<circle class="st14" cx="-658.1" cy="244.5" r="4.1"/>
				</g>
			</g>
			<g>
				<g>
					<polygon class="st14" points="-233.6,311.8 -268.7,311.8 -361.6,218.9 -674.1,218.9 -674.1,217.8 -361.2,217.8 -268.3,310.8 
						-234,310.8 -207.2,284 -97.4,284 -69.5,256.1 -68.8,256.9 -96.9,285 -206.8,285 					"/>
				</g>
				<g>
					<path class="st14" d="M-72.2,253.7c1.6-1.6,4.2-1.6,5.8,0c1.6,1.6,1.6,4.2,0,5.8c-1.6,1.6-4.2,1.6-5.8,0
						C-73.7,257.9-73.7,255.3-72.2,253.7z"/>
				</g>
				<g>
					<path class="st14" d="M-673.9,214.3c-2.3,0-4.1,1.8-4.1,4.1s1.8,4.1,4.1,4.1s4.1-1.8,4.1-4.1S-671.6,214.3-673.9,214.3z"/>
				</g>
			</g>
			<g>
				<g>
					<polygon class="st14" points="-235.5,274.2 -236.3,273.5 -200.2,237.4 -87.8,237.4 -87.8,238.5 -199.7,238.5 					"/>
				</g>
				<g>
					<path class="st14" d="M-88,233.9c2.3,0,4.1,1.8,4.1,4.1s-1.8,4.1-4.1,4.1s-4.1-1.8-4.1-4.1C-92.1,235.7-90.3,233.9-88,233.9z"
						/>
				</g>
				<g>
					<circle class="st14" cx="-235.7" cy="273.7" r="4.1"/>
				</g>
			</g>
			<g>
				<g>
					<polygon class="st14" points="-328.6,34.6 -439.2,34.6 -523.6,-49.8 -522.8,-50.6 -438.7,33.5 -328.6,33.5 					"/>
				</g>
				<g>
					<path class="st14" d="M-328.8,30c2.3,0,4.1,1.8,4.1,4.1s-1.8,4.1-4.1,4.1s-4.1-1.8-4.1-4.1S-331,30-328.8,30z"/>
				</g>
				<g>
					<path class="st14" d="M-520.2-52.9c-1.6-1.6-4.2-1.6-5.8,0c-1.6,1.6-1.6,4.2,0,5.8c1.6,1.6,4.2,1.6,5.8,0
						C-518.6-48.8-518.6-51.3-520.2-52.9z"/>
				</g>
			</g>
			<g>
				<g>
					<polygon class="st14" points="-476.8,35.7 -531,-18.5 -680.7,-18.5 -680.7,-19.6 -530.6,-19.6 -476,34.9 					"/>
				</g>
				<g>
					<path class="st14" d="M-473.7,32.3c1.6,1.6,1.6,4.2,0,5.8s-4.2,1.6-5.8,0c-1.6-1.6-1.6-4.2,0-5.8S-475.3,30.7-473.7,32.3z"/>
				</g>
				<g>
					<path class="st14" d="M-680.5-23.2c-2.3,0-4.1,1.8-4.1,4.1s1.8,4.1,4.1,4.1s4.1-1.8,4.1-4.1S-678.2-23.2-680.5-23.2z"/>
				</g>
			</g>
		</g>
	</g>
	<g class="st11">
		<defs>
			<rect id="SVGID_5_" x="-599.8" y="-198.6" width="1382.4" height="921.6"/>
		</defs>
		<clipPath id="SVGID_6_">
			<use xlink:href="#SVGID_5_"  style="overflow:visible;"/>
		</clipPath>
		<g class="st15">
			<g>
				<g>
					<polygon class="st14" points="223.7,436.7 388,436.7 457.3,506 579.5,506 675.4,601.9 674.6,602.6 579.1,507.1 456.9,507.1 
						387.6,437.8 223.7,437.8 					"/>
				</g>
				<g>
					<path class="st14" d="M223.9,441.3c-2.3,0-4.1-1.8-4.1-4.1s1.8-4.1,4.1-4.1s4.1,1.8,4.1,4.1
						C227.9,439.5,226.1,441.3,223.9,441.3z"/>
				</g>
				<g>
					<path class="st14" d="M672,605c1.6,1.6,4.2,1.6,5.8,0s1.6-4.2,0-5.8s-4.2-1.6-5.8,0C670.4,600.8,670.4,603.4,672,605z"/>
				</g>
			</g>
			<g>
				<g>
					<polygon class="st14" points="731.6,-84.9 842.6,-84.9 842.6,-83.8 732,-83.8 670.8,-22.6 548.7,-22.6 479.4,46.7 311.3,46.7 
						249.5,108.6 248.7,107.8 310.9,45.6 478.9,45.6 548.2,-23.7 670.4,-23.7 					"/>
				</g>
				<g>
					<path class="st14" d="M252.1,110.9c-1.6,1.6-4.2,1.6-5.8,0s-1.6-4.2,0-5.8s4.2-1.6,5.8,0C253.7,106.7,253.7,109.3,252.1,110.9z
						"/>
				</g>
				<g>
					<path class="st14" d="M842.4-80.2c2.3,0,4.1-1.8,4.1-4.1s-1.8-4.1-4.1-4.1s-4.1,1.8-4.1,4.1S840.1-80.2,842.4-80.2z"/>
				</g>
			</g>
			<g>
				<g>
					<polygon class="st14" points="173.3,355.6 229.3,411.6 421.7,411.6 479.3,469.1 556.6,469.1 587.6,438.1 821.8,438.1 
						821.8,439.2 588,439.2 557,470.2 478.8,470.2 421.3,412.6 228.9,412.6 172.6,356.4 					"/>
				</g>
				<g>
					<path class="st14" d="M170.2,359c-1.6-1.6-1.6-4.2,0-5.8s4.2-1.6,5.8,0s1.6,4.2,0,5.8C174.4,360.6,171.8,360.6,170.2,359z"/>
				</g>
				<g>
					<path class="st14" d="M821.6,442.8c2.3,0,4.1-1.8,4.1-4.1s-1.8-4.1-4.1-4.1s-4.1,1.8-4.1,4.1
						C817.6,440.9,819.4,442.8,821.6,442.8z"/>
				</g>
			</g>
			<g>
				<g>
					<polygon class="st14" points="326.5,60.6 391.5,60.6 439.6,108.7 533.8,108.7 580.7,155.6 721.3,155.6 721.3,156.7 
						580.3,156.7 533.4,109.8 439.2,109.8 391,61.7 326.9,61.7 260.8,127.8 260.1,127 					"/>
				</g>
				<g>
					<path class="st14" d="M263.5,130.1c-1.6,1.6-4.2,1.6-5.8,0s-1.6-4.2,0-5.8s4.2-1.6,5.8,0C265.1,125.9,265.1,128.5,263.5,130.1z
						"/>
				</g>
				<g>
					<circle class="st14" cx="721.1" cy="156.1" r="4.1"/>
				</g>
			</g>
			<g>
				<g>
					<polygon class="st14" points="180.4,329.3 235,383.9 418.2,383.9 479.5,445.2 535.5,445.2 580.4,400.3 756.8,400.3 
						756.8,401.4 580.9,401.4 536,446.3 479.1,446.3 417.8,385 234.6,385 179.6,330 					"/>
				</g>
				<g>
					<path class="st14" d="M756.6,396.8c2.3,0,4.1,1.8,4.1,4.1s-1.8,4.1-4.1,4.1s-4.1-1.8-4.1-4.1S754.4,396.8,756.6,396.8z"/>
				</g>
				<g>
					<path class="st14" d="M183,326.9c-1.6-1.6-4.2-1.6-5.8,0s-1.6,4.2,0,5.8s4.2,1.6,5.8,0C184.6,331.1,184.6,328.5,183,326.9z"/>
				</g>
			</g>
			<g>
				<g>
					<polygon class="st14" points="334.7,114.2 414.3,114.2 506.6,206.4 696.8,206.4 742.7,160.5 743.5,161.3 697.3,207.5 
						506.1,207.5 413.9,115.3 335.2,115.3 289.9,160.5 208.3,160.5 208.3,159.4 289.5,159.4 					"/>
				</g>
				<g>
					<path class="st14" d="M208.5,164c-2.3,0-4.1-1.8-4.1-4.1s1.8-4.1,4.1-4.1s4.1,1.8,4.1,4.1C212.6,162.2,210.8,164,208.5,164z"/>
				</g>
				<g>
					<path class="st14" d="M745.8,163.9c1.6-1.6,1.6-4.2,0-5.8s-4.2-1.6-5.8,0s-1.6,4.2,0,5.8C741.7,165.5,744.2,165.5,745.8,163.9z
						"/>
				</g>
			</g>
			<g>
				<g>
					<polygon class="st14" points="317.2,95.3 361,95.3 361,96.4 317.6,96.4 267.8,146.2 267,145.4 					"/>
				</g>
				<g>
					<path class="st14" d="M270.4,148.6c-1.6,1.6-4.2,1.6-5.8,0s-1.6-4.2,0-5.8s4.2-1.6,5.8,0C272,144.4,272,147,270.4,148.6z"/>
				</g>
				<g>
					<path class="st14" d="M360.8,99.9c2.3,0,4.1-1.8,4.1-4.1s-1.8-4.1-4.1-4.1s-4.1,1.8-4.1,4.1C356.7,98.1,358.5,99.9,360.8,99.9z
						"/>
				</g>
			</g>
			<g>
				<g>
					<polygon class="st14" points="180.4,296.8 239,355.4 404.2,355.4 459.5,410.7 551.3,410.7 599.2,362.8 797.8,362.8 
						856.5,421.6 855.7,422.3 797.4,363.9 599.7,363.9 551.8,411.8 459.1,411.8 403.7,356.5 238.5,356.5 179.6,297.5 					"/>
				</g>
				<g>
					<path class="st14" d="M177.2,300.2c-1.6-1.6-1.6-4.2,0-5.8s4.2-1.6,5.8,0s1.6,4.2,0,5.8S178.8,301.8,177.2,300.2z"/>
				</g>
				<g>
					<path class="st14" d="M853.1,424.7c1.6,1.6,4.2,1.6,5.8,0c1.6-1.6,1.6-4.2,0-5.8s-4.2-1.6-5.8,0
						C851.5,420.5,851.5,423.1,853.1,424.7z"/>
				</g>
			</g>
			<g>
				<g>
					<polygon class="st14" points="205,285.3 252.6,333 400.6,333 458.4,390.7 547.8,390.7 620.6,318 621.4,318.7 548.3,391.8 
						458,391.8 400.2,334.1 252.1,334.1 204.2,286.1 					"/>
				</g>
				<g>
					<path class="st14" d="M201.8,288.7c-1.6-1.6-1.6-4.2,0-5.8s4.2-1.6,5.8,0s1.6,4.2,0,5.8C206,290.3,203.4,290.3,201.8,288.7z"/>
				</g>
				<g>
					<path class="st14" d="M623.7,321.4c1.6-1.6,1.6-4.2,0-5.8s-4.2-1.6-5.8,0s-1.6,4.2,0,5.8C619.5,322.9,622.1,322.9,623.7,321.4z
						"/>
				</g>
			</g>
			<g>
				<g>
					<polygon class="st14" points="365.9,141.9 421.4,141.9 527,247.5 807.4,247.5 807.4,248.6 526.6,248.6 420.9,142.9 
						366.4,142.9 326.8,182.5 219.6,182.5 173.3,228.8 172.6,228 219.2,181.4 326.4,181.4 					"/>
				</g>
				<g>
					<path class="st14" d="M176,231.1c-1.6,1.6-4.2,1.6-5.8,0s-1.6-4.2,0-5.8s4.2-1.6,5.8,0C177.5,227,177.5,229.6,176,231.1z"/>
				</g>
				<g>
					<path class="st14" d="M807.2,252.1c2.3,0,4.1-1.8,4.1-4.1s-1.8-4.1-4.1-4.1s-4.1,1.8-4.1,4.1
						C803.1,250.3,805,252.1,807.2,252.1z"/>
				</g>
			</g>
			<g>
				<g>
					<polygon class="st14" points="418.6,268.4 456.3,268.4 456.3,269.5 419.1,269.5 384.8,303.7 256.7,303.7 256.7,302.7 
						384.4,302.7 					"/>
				</g>
				<g>
					<circle class="st14" cx="256.9" cy="303.2" r="4.1"/>
				</g>
				<g>
					<circle class="st14" cx="456.1" cy="268.9" r="4.1"/>
				</g>
			</g>
			<g>
				<g>
					<polygon class="st14" points="421.1,302 473.6,354.5 549.4,354.5 549.4,355.6 473.1,355.6 420.3,302.8 					"/>
				</g>
				<g>
					<path class="st14" d="M418,305.4c-1.6-1.6-1.6-4.2,0-5.8s4.2-1.6,5.8,0s1.6,4.2,0,5.8C422.2,307,419.6,307,418,305.4z"/>
				</g>
				<g>
					<path class="st14" d="M549.2,359.1c2.3,0,4.1-1.8,4.1-4.1s-1.8-4.1-4.1-4.1s-4.1,1.8-4.1,4.1S547,359.1,549.2,359.1z"/>
				</g>
			</g>
			<g>
				<g>
					<polygon class="st14" points="456.3,296.8 492.9,333.4 560,333.4 560,334.5 492.5,334.5 455.5,297.5 					"/>
				</g>
				<g>
					<circle class="st14" cx="456" cy="297.3" r="4.1"/>
				</g>
				<g>
					<path class="st14" d="M559.8,338c2.3,0,4.1-1.8,4.1-4.1s-1.8-4.1-4.1-4.1s-4.1,1.8-4.1,4.1C555.7,336.2,557.5,338,559.8,338z"
						/>
				</g>
			</g>
			<g>
				<g>
					<rect x="757.1" y="142.3" class="st14" width="46.8" height="1.1"/>
				</g>
				<g>
					<path class="st14" d="M757.3,146.9c-2.3,0-4.1-1.8-4.1-4.1s1.8-4.1,4.1-4.1s4.1,1.8,4.1,4.1S759.6,146.9,757.3,146.9z"/>
				</g>
				<g>
					<path class="st14" d="M803.7,146.9c2.3,0,4.1-1.8,4.1-4.1s-1.8-4.1-4.1-4.1c-2.2,0-4.1,1.8-4.1,4.1
						C799.6,145,801.4,146.9,803.7,146.9z"/>
				</g>
			</g>
			<g>
				<g>
					<polygon class="st14" points="482.3,136.4 529.4,183.6 680.9,183.6 680.9,184.6 529,184.6 481.5,137.1 					"/>
				</g>
				<g>
					<path class="st14" d="M479.1,139.8c-1.6-1.6-1.6-4.2,0-5.8s4.2-1.6,5.8,0s1.6,4.2,0,5.8C483.3,141.3,480.7,141.3,479.1,139.8z"
						/>
				</g>
				<g>
					<circle class="st14" cx="680.7" cy="184.1" r="4.1"/>
				</g>
			</g>
			<g>
				<g>
					<polygon class="st14" points="731.1,-57.2 833.8,-57.2 833.8,-56.1 731.5,-56.1 653.3,22.1 563.7,22.1 512.8,73 416.2,73 
						416.2,72 512.3,72 563.3,21 652.9,21 					"/>
				</g>
				<g>
					<path class="st14" d="M416.4,76.6c-2.3,0-4.1-1.8-4.1-4.1s1.8-4.1,4.1-4.1s4.1,1.8,4.1,4.1C420.5,74.7,418.7,76.6,416.4,76.6z"
						/>
				</g>
				<g>
					<path class="st14" d="M833.6-52.6c2.3,0,4.1-1.8,4.1-4.1s-1.8-4.1-4.1-4.1s-4.1,1.8-4.1,4.1S831.3-52.6,833.6-52.6z"/>
				</g>
			</g>
			<g>
				<g>
					<polygon class="st14" points="838,62.6 838.8,63.3 778.1,124 596.7,124 561.5,88.9 451.4,88.9 451.4,87.8 562,87.8 
						597.1,122.9 777.7,122.9 					"/>
				</g>
				<g>
					<path class="st14" d="M451.6,92.4c-2.3,0-4.1-1.8-4.1-4.1s1.8-4.1,4.1-4.1s4.1,1.8,4.1,4.1C455.6,90.6,453.8,92.4,451.6,92.4z"
						/>
				</g>
				<g>
					<path class="st14" d="M841.1,66c1.6-1.6,1.6-4.2,0-5.8s-4.2-1.6-5.8,0s-1.6,4.2,0,5.8S839.6,67.5,841.1,66z"/>
				</g>
			</g>
			<g>
				<g>
					<polygon class="st14" points="737.2,-3.6 822,-3.6 852,26.3 851.2,27.1 821.6,-2.5 737.7,-2.5 674.4,60.7 570.9,60.7 
						570.9,59.7 674,59.7 					"/>
				</g>
				<g>
					<circle class="st14" cx="571.1" cy="60.2" r="4.1"/>
				</g>
				<g>
					<path class="st14" d="M848.6,29.4c1.6,1.6,4.2,1.6,5.8,0s1.6-4.2,0-5.8c-1.6-1.6-4.2-1.6-5.8,0C847,25.3,847,27.9,848.6,29.4z"
						/>
				</g>
			</g>
			<g>
				<g>
					<polygon class="st14" points="761,37.7 803.9,37.7 803.9,38.8 761.4,38.8 713.1,87.1 606,87.1 606,86 712.6,86 					"/>
				</g>
				<g>
					<circle class="st14" cx="606.2" cy="86.6" r="4.1"/>
				</g>
				<g>
					<circle class="st14" cx="803.7" cy="38.2" r="4.1"/>
				</g>
			</g>
			<g>
				<g>
					<polygon class="st14" points="848.6,141.6 849.3,142.4 771.1,220.7 565.6,220.7 565.6,219.6 770.6,219.6 					"/>
				</g>
				<g>
					<path class="st14" d="M565.8,224.2c-2.3,0-4.1-1.8-4.1-4.1s1.8-4.1,4.1-4.1s4.1,1.8,4.1,4.1C569.9,222.4,568,224.2,565.8,224.2
						z"/>
				</g>
				<g>
					<path class="st14" d="M851.7,145c1.6-1.6,1.6-4.2,0-5.8s-4.2-1.6-5.8,0s-1.6,4.2,0,5.8C847.5,146.6,850.1,146.6,851.7,145z"/>
				</g>
			</g>
			<g>
				<g>
					<polygon class="st14" points="397.2,176.5 430.2,176.5 526.4,272.7 825,272.7 825,273.8 525.9,273.8 429.7,177.6 397.6,177.6 
						359.9,215.4 256.2,215.4 225.7,245.9 224.9,245.1 255.7,214.3 359.4,214.3 					"/>
				</g>
				<g>
					<path class="st14" d="M228.3,248.2c-1.6,1.6-4.2,1.6-5.8,0s-1.6-4.2,0-5.8s4.2-1.6,5.8,0C229.9,244.1,229.9,246.6,228.3,248.2z
						"/>
				</g>
				<g>
					<path class="st14" d="M824.8,277.3c2.3,0,4.1-1.8,4.1-4.1s-1.8-4.1-4.1-4.1s-4.1,1.8-4.1,4.1
						C820.7,275.5,822.5,277.3,824.8,277.3z"/>
				</g>
			</g>
			<g>
				<g>
					<polygon class="st14" points="400.3,206 435.4,206 528.3,298.9 840.8,298.9 840.8,300 527.9,300 435,207 400.7,207 
						373.9,233.8 264.1,233.8 236.2,261.7 235.5,260.9 263.6,232.8 373.5,232.8 					"/>
				</g>
				<g>
					<path class="st14" d="M238.9,264c-1.6,1.6-4.2,1.6-5.8,0s-1.6-4.2,0-5.8s4.2-1.6,5.8,0C240.4,259.9,240.4,262.5,238.9,264z"/>
				</g>
				<g>
					<path class="st14" d="M840.6,303.5c2.3,0,4.1-1.8,4.1-4.1s-1.8-4.1-4.1-4.1s-4.1,1.8-4.1,4.1
						C836.5,301.7,838.3,303.5,840.6,303.5z"/>
				</g>
			</g>
			<g>
				<g>
					<polygon class="st14" points="402.2,243.6 403,244.3 366.9,280.4 254.5,280.4 254.5,279.3 366.4,279.3 					"/>
				</g>
				<g>
					<circle class="st14" cx="254.8" cy="279.9" r="4.1"/>
				</g>
				<g>
					<path class="st14" d="M405.3,247c1.6-1.6,1.6-4.2,0-5.8s-4.2-1.6-5.8,0s-1.6,4.2,0,5.8C401.2,248.5,403.7,248.5,405.3,247z"/>
				</g>
			</g>
			<g>
				<g>
					<polygon class="st14" points="495.3,483.2 605.9,483.2 690.3,567.6 689.5,568.4 605.4,484.3 495.3,484.3 					"/>
				</g>
				<g>
					<path class="st14" d="M495.5,487.8c-2.3,0-4.1-1.8-4.1-4.1s1.8-4.1,4.1-4.1s4.1,1.8,4.1,4.1C499.6,486,497.8,487.8,495.5,487.8
						z"/>
				</g>
				<g>
					<path class="st14" d="M686.9,570.7c1.6,1.6,4.2,1.6,5.8,0s1.6-4.2,0-5.8s-4.2-1.6-5.8,0C685.3,566.5,685.3,569.1,686.9,570.7z"
						/>
				</g>
			</g>
			<g>
				<g>
					<polygon class="st14" points="643.5,482.1 697.7,536.3 847.4,536.3 847.4,537.4 697.3,537.4 642.7,482.9 					"/>
				</g>
				<g>
					<path class="st14" d="M640.4,485.5c-1.6-1.6-1.6-4.2,0-5.8s4.2-1.6,5.8,0s1.6,4.2,0,5.8S642,487.1,640.4,485.5z"/>
				</g>
				<g>
					<circle class="st14" cx="847.2" cy="536.9" r="4.1"/>
				</g>
			</g>
		</g>
	</g>
</g>
<rect x="-116.6" y="-124.8" class="st16" width="698" height="615"/>
<rect x="-159.6" y="-138.8" class="st10" width="812" height="596"/>
<g>
	<g class="st10">
		
			<image style="display:inline;overflow:visible;enable-background:new    ;" width="389" height="389" xlink:href="98119E95.png"  transform="matrix(1 0 0 1 -18.6452 -17.0458)">
		</image>
	</g>
	<circle class="st17" cx="176.3" cy="177.6" r="161.2"/>
	<path class="st18" d="M176.3,327.1c-82.5,0-149.6-67.1-149.6-149.6S93.8,28,176.3,28s149.6,67.1,149.6,149.6
		S258.8,327.1,176.3,327.1z M176.3,31.9C96,31.9,30.7,97.3,30.7,177.6S96,323.2,176.3,323.2s145.6-65.3,145.6-145.6
		S256.6,31.9,176.3,31.9z"/>
</g>
<text transform="matrix(1 0 0 1 71.2752 208.8367)" class="st19 st20 st21">TXT</text>
</svg>
